HIERARCHY
ROOT hip
{
	OFFSET 0.000000 0.000000 0.000000 
	CHANNELS 6 Xposition Yposition Zposition Xrotation Zrotation Yrotation
	JOINT abdomen
	{
		OFFSET 0.000000 3.402643 0.000000 
		CHANNELS 3 Xrotation Zrotation Yrotation
		JOINT chest
		{
			OFFSET 0.000000 8.438565 -0.680529 
			CHANNELS 3 Xrotation Zrotation Yrotation
			JOINT neck
			{
				OFFSET 0.000000 10.207942 -0.272212 
				CHANNELS 3 Xrotation Zrotation Yrotation
				JOINT head
				{
					OFFSET 0.000000 3.130431 0.000000 
					CHANNELS 3 Xrotation Zrotation Yrotation
					End Site
					{
						OFFSET 0.000000 3.130435 0.000000 
					}
				}
			}
			JOINT lCollar
			{
				OFFSET 3.470700 6.669187 -0.816635 
				CHANNELS 3 Yrotation Zrotation Xrotation
				JOINT lShldr
				{
					OFFSET 3.198488 0.000000 0.000000 
					CHANNELS 3 Zrotation Yrotation Xrotation
					JOINT lForeArm
					{
						OFFSET 10.139888 0.000000 0.000000 
						CHANNELS 3 Yrotation Zrotation Xrotation
						JOINT lHand
						{
							OFFSET 8.370511 0.000000 0.000000 
							CHANNELS 3 Zrotation Yrotation Xrotation
							End Site
							{
								OFFSET 4.083176 0.000000 0.000000 
							}
						}
					}
				}
			}
			JOINT rCollar
			{
				OFFSET -3.470700 6.669187 -0.816635 
				CHANNELS 3 Yrotation Zrotation Xrotation
				JOINT rShldr
				{
					OFFSET -3.198488 0.000000 0.000000 
					CHANNELS 3 Zrotation Yrotation Xrotation
					JOINT rForeArm
					{
						OFFSET -10.139888 0.000000 0.000000 
						CHANNELS 3 Yrotation Zrotation Xrotation
						JOINT rHand
						{
							OFFSET -8.370511 0.000000 0.000000 
							CHANNELS 3 Zrotation Yrotation Xrotation
							End Site
							{
								OFFSET -4.083176 0.000000 0.000000 
							}
						}
					}
				}
			}
		}
	}
	JOINT lThigh
	{
		OFFSET 5.308129 -1.633274 1.361059 
		CHANNELS 3 Xrotation Zrotation Yrotation
		JOINT lShin
		{
			OFFSET -2.041588 -20.007561 0.000000 
			CHANNELS 3 Xrotation Zrotation Yrotation
			JOINT lFoot
			{
				OFFSET 0.000000 -19.190928 -1.224953 
				CHANNELS 3 Xrotation Yrotation Zrotation
				End Site
				{
					OFFSET 0.000000 -2.449906 4.627600 
				}
			}
		}
	}
	JOINT rThigh
	{
		OFFSET -5.308129 -1.633274 1.361059 
		CHANNELS 3 Xrotation Zrotation Yrotation
		JOINT rShin
		{
			OFFSET 2.041588 -20.007561 0.000000 
			CHANNELS 3 Xrotation Zrotation Yrotation
			JOINT rFoot
			{
				OFFSET 0.000000 -19.190928 -1.224953 
				CHANNELS 3 Xrotation Yrotation Zrotation
				End Site
				{
					OFFSET 0.000000 -2.449906 4.627600 
				}
			}
		}
	}
}
MOTION
Frames: 17
Frame Time: 0.033333
-119.483063 52.770870 -119.829620 -2.012485 -1.581056 37.662952 21.181648 0.047687 0.039433 -20.839844 0.000000 0.000000 5.030232 3.802826 1.599078 -2.520832 -1.255077 0.218355 -4.754609 -0.109184 -0.002653 -72.622017 -9.204007 45.632214 -2.634229 0.055737 -7.415541 -3.342247 -2.176915 -0.043204 4.754609 0.109184 -0.002672 82.798927 2.777648 -6.381300 3.074771 -0.754363 47.240494 -2.076030 8.290851 -0.029000 8.073606 12.283033 1.876027 -5.474388 -3.658699 8.157196 -1.383443 0.110382 -1.740343 3.786248 -8.901195 -7.047662 -3.402937 3.753344 -3.600018 1.569247 -0.333035 5.749271 
-119.458282 52.766811 -119.850464 -1.983293 -1.698201 37.539246 21.201197 0.081942 0.031799 -20.839844 0.000000 0.000000 5.190419 3.794352 1.781748 -2.520832 -1.255077 0.218355 -4.754609 -0.109184 -0.002653 -72.274773 -9.356553 44.487457 -2.634950 0.050332 -7.767061 -4.151592 -1.621672 -0.092294 4.754609 0.109184 -0.002672 83.040749 2.887279 -5.591826 3.062445 -0.746438 46.547123 -1.847822 7.840876 -0.016170 8.016157 12.294175 1.994315 -5.475830 -3.659364 8.118191 -1.442258 0.102646 -1.670211 3.589353 -8.868568 -6.548617 -3.343289 3.723260 -3.955792 1.579961 -0.317415 5.754757 
-119.375977 52.758183 -119.852448 -2.286316 -1.824719 36.967331 21.269560 0.112187 0.117044 -20.839844 0.000000 0.000000 5.710349 3.826864 2.337985 -2.520832 -1.255077 0.218355 -4.754609 -0.109184 -0.002653 -71.808449 -9.164467 44.378201 -2.635385 0.047181 -7.972113 -4.483655 -1.963252 -0.080116 4.754609 0.109184 -0.002672 83.654427 2.576299 -4.783700 3.077559 -0.756925 47.582397 -1.887001 7.753043 -0.019329 8.483990 12.390293 3.197699 -5.484310 -3.687718 7.563904 -1.571983 0.091952 -1.591051 3.591050 -8.687021 -6.204415 -3.128619 3.732589 -3.657702 1.465534 -0.343978 5.809339 
-119.274963 52.755642 -119.813904 -2.501365 -1.892728 36.674419 21.328129 0.107333 0.157242 -20.839844 0.000000 0.000000 6.124280 3.591484 2.558061 -2.520832 -1.255077 0.218355 -4.754609 -0.109184 -0.002653 -71.623863 -9.235757 45.111732 -2.633085 0.064905 -6.819910 -4.573838 -3.152856 -0.008438 4.754609 0.109184 -0.002672 84.259621 2.126817 -4.366285 3.092873 -0.767304 48.656612 -2.084613 8.095316 -0.026370 8.866268 12.451265 3.966362 -5.491548 -3.725499 7.146956 -1.705446 0.105010 -1.512942 3.716540 -8.575326 -6.065978 -2.996372 3.748341 -3.511968 1.301628 -0.343663 5.843270 
-119.193237 52.762241 -119.762085 -2.384210 -1.961193 36.790577 21.337912 0.103027 0.113652 -20.839844 0.000000 0.000000 6.206270 3.397719 2.304946 -2.520832 -1.255077 0.218355 -4.754609 -0.109184 -0.002653 -71.773018 -9.722287 46.270527 -3.223220 0.110793 -4.025741 -4.694437 -3.961840 0.049608 4.754609 0.109184 -0.002672 84.722198 2.067126 -4.418556 3.096484 -0.770456 49.096172 -2.105473 8.154221 -0.033923 8.782734 12.405830 3.709177 -5.486794 -3.707021 7.252591 -1.806936 0.087947 -1.352017 3.660897 -8.651455 -5.519492 -2.974903 3.706131 -4.231420 1.181871 -0.335717 5.775333 
-119.101349 52.765797 -119.722992 -2.159665 -2.107878 36.846996 21.347706 0.118243 0.046234 -20.839844 0.000000 0.000000 6.192976 3.504031 2.110266 -2.520832 -1.255077 0.218355 -4.754609 -0.109184 -0.002653 -72.158157 -10.284328 47.494053 -3.857109 0.141677 -1.729409 -5.069212 -4.722373 0.096914 4.754609 0.109184 -0.002672 84.973053 2.146769 -4.146808 3.106857 -0.766492 49.584553 -1.979428 8.642535 -0.025994 8.541891 12.321306 3.547838 -5.484389 -3.707081 7.301403 -1.875076 0.073727 -1.074170 3.423853 -8.731158 -4.913364 -2.976033 3.669561 -4.972077 1.115789 -0.346978 5.824275 
-118.999298 52.751080 -119.700134 -1.808102 -2.303541 36.801155 21.337931 0.113955 0.002600 -20.839844 0.000000 0.000000 6.189944 3.441748 1.975510 -2.520832 -1.255077 0.218355 -4.754609 -0.109184 -0.002653 -72.752319 -10.894999 48.857475 -4.423595 0.162971 -0.760942 -5.152760 -5.463033 0.152491 4.754609 0.109184 -0.002672 85.018593 2.199541 -3.922722 3.123179 -0.777145 50.815018 -1.964740 9.902880 -0.020773 8.189785 12.163745 3.512336 -5.494483 -3.707362 7.331429 -1.958041 0.058745 -0.786043 3.083816 -8.881248 -4.697447 -3.022504 3.657611 -5.199607 1.121344 -0.357198 5.945240 
-118.893188 52.726192 -119.665619 -1.466228 -2.489420 36.440594 21.337925 0.104859 -0.000955 -20.839844 0.000000 0.000000 6.016442 3.269526 2.127332 -2.520832 -1.255077 0.218355 -4.754609 -0.109184 -0.002653 -73.286674 -11.373409 50.002361 -5.263442 0.157792 -0.544025 -5.055738 -5.609423 0.157697 4.754609 0.109184 -0.002672 85.095177 2.333238 -3.767249 3.138474 -0.786629 51.938210 -1.980097 11.163220 -0.013824 8.006434 11.941928 4.030407 -5.491884 -3.705862 7.165242 -2.172375 0.038361 -0.500103 2.672736 -9.016479 -4.064175 -3.021612 3.636522 -5.647915 1.072682 -0.346695 5.762606 
-118.777924 52.709454 -119.624542 -1.104676 -2.626466 35.734165 21.347691 0.097904 0.017313 -20.839844 0.000000 0.000000 5.714080 3.138848 2.661722 -2.520832 -1.255077 0.218355 -4.754609 -0.109184 -0.002653 -73.753403 -11.741011 50.596626 -6.327869 0.165954 -0.501986 -5.199785 -5.248678 0.135135 4.754609 0.109184 -0.002672 85.152672 2.729876 -3.671318 3.150580 -0.783641 52.690254 -1.942146 11.749125 -0.002273 7.962936 11.624118 4.799778 -5.497731 -3.718261 7.117273 -2.508699 0.045565 -0.297533 2.186898 -9.257455 -2.924200 -3.062054 3.608845 -6.284278 1.041674 -0.336386 5.517142 
-118.658630 52.672897 -119.596619 -0.518160 -2.714733 34.565533 21.347672 0.065816 0.046704 -20.839844 0.000000 0.000000 5.330464 3.011729 3.547286 -2.520832 -1.255077 0.218355 -4.754609 -0.109184 -0.002653 -74.323456 -12.146400 51.301003 -7.040747 0.160638 -0.471240 -5.012864 -5.122157 0.120898 4.754609 0.109184 -0.002672 85.272438 3.366535 -3.312913 3.157290 -0.798443 53.510597 -2.061625 11.554284 -0.020833 7.829213 11.080848 5.593498 -5.481573 -3.695538 7.515516 -2.910039 0.018359 -0.108508 1.512824 -9.635823 -1.939265 -3.230616 3.611279 -6.081268 1.180273 -0.343389 5.377231 
-118.540344 52.597244 -119.593048 0.430213 -2.831951 32.712662 21.308575 0.008599 0.087209 -20.839844 0.000000 0.000000 4.670929 2.520625 4.915130 -2.520832 -1.255077 0.218355 -4.754609 -0.109184 -0.002653 -75.166237 -12.442450 51.967293 -7.303658 0.154025 -1.224676 -4.026153 -5.259137 0.116046 4.754609 0.109184 -0.002672 85.487000 4.420245 -2.241381 3.168411 -0.804240 54.164940 -2.536612 11.145431 -0.064293 7.431132 10.312971 6.242610 -5.471145 -3.646815 8.625233 -3.369115 0.000682 0.031969 0.341260 -10.179449 -0.992350 -3.529689 3.667085 -4.982055 1.631209 -0.305729 5.290799 
-118.429688 52.480484 -119.503204 1.270988 -2.743467 29.928991 21.308523 -0.055587 0.146028 -20.839844 0.000000 0.000000 4.344503 1.632857 7.012511 -2.520832 -1.255077 0.218355 -4.754609 -0.109184 -0.002653 -76.003029 -11.965052 52.177399 -7.526247 0.136739 -2.165411 -2.590930 -5.601065 0.118499 4.754609 0.109184 -0.002672 85.954346 5.705301 -0.943358 3.164758 -0.791815 53.715801 -2.835347 11.341649 -0.087884 7.514272 9.448833 7.040795 -5.459227 -3.541259 10.512815 -4.052663 0.003390 0.054357 -0.800065 -10.659682 -0.349316 -3.813699 3.766495 -3.034191 2.526586 -0.279892 5.193533 
-118.328621 52.339851 -119.229523 1.632293 -2.401370 26.474207 21.357367 -0.082872 0.135358 -20.839844 0.000000 0.000000 4.577737 0.555858 10.190032 -2.520832 -1.255077 0.218355 -4.754609 -0.109184 -0.002653 -76.128418 -10.741726 51.378410 -8.098091 0.124433 -3.205130 -2.299021 -6.147938 0.128253 4.754609 0.109184 -0.002672 86.840164 6.559900 1.214284 3.127354 -0.780517 51.322933 -3.233873 11.460135 -0.123871 8.503920 8.641470 8.207942 -5.429204 -3.415035 12.787799 -4.902217 0.020305 -0.129311 -1.385723 -10.824086 0.484101 -4.060330 3.778596 -2.016937 3.746645 -0.214211 5.260107 
-118.224068 52.200745 -118.812744 1.856472 -1.883777 23.073431 21.425810 -0.115227 0.028194 -20.839844 0.000000 0.000000 4.708863 -0.408878 13.625842 -2.520832 -1.255077 0.218355 -4.754609 -0.109184 -0.002653 -75.948692 -9.297970 50.860119 -8.848477 0.097561 -4.769170 -3.338552 -6.420148 0.167074 4.754609 0.109184 -0.002672 88.093208 6.726751 4.160693 3.042628 -0.730999 44.945488 -4.746564 11.669843 -0.256240 8.947531 7.875853 8.158822 -3.759869 -3.249406 16.082443 -6.549296 0.078579 -0.669577 -1.492143 -10.898908 1.045589 -4.392171 3.680994 -2.523640 4.621838 -0.170949 4.890843 
-118.091560 52.048943 -118.293365 2.471185 -1.131759 20.156055 21.455212 -0.196482 -0.087744 -20.839844 0.000000 0.000000 4.316306 -1.270029 16.279930 -2.520832 -1.255077 0.218355 -4.754609 -0.109184 -0.002653 -76.483849 -8.321924 52.276764 -8.896416 0.077238 -5.958307 -3.597022 -6.887891 0.204256 4.754609 0.109184 -0.002672 87.923363 0.737629 8.666547 14.466370 -0.640649 34.817307 -3.012280 8.449086 -0.082731 9.244040 6.697227 7.417578 -2.657581 -3.084099 19.438301 -7.846247 0.144149 -0.941725 -6.256048 -11.252680 -0.796128 5.056724 3.709832 -0.706024 -0.228138 -0.371554 3.882383 
-117.924538 51.858063 -117.639992 3.134825 -0.351036 17.900639 21.484707 -0.315377 -0.187149 -20.839844 0.000000 0.000000 3.689353 -2.122690 18.328487 -2.520832 -1.255077 0.218355 -4.754609 -0.109184 -0.002653 -77.071495 -8.092746 54.047310 -8.430505 0.095708 -4.698305 -2.853486 -7.093540 0.192185 4.754609 0.109184 -0.002672 84.777313 -9.979193 13.530203 32.844242 -0.710699 31.199549 -1.386338 2.614727 -0.614610 9.676389 5.438852 8.339105 -1.849828 -3.050567 20.222748 -9.078893 0.158774 -0.807966 -8.942057 -11.996952 -2.786101 10.846345 3.758358 0.954684 -3.889898 -0.366028 2.618952 
-117.716385 51.629608 -116.892708 3.486380 0.311922 15.937027 21.572929 -0.440182 -0.216109 -20.839844 0.000000 0.000000 3.224384 -2.770409 20.375990 -2.520832 -1.255077 0.218355 -4.754609 -0.109184 -0.002653 -77.022102 -7.958168 53.597763 -8.349347 0.181580 0.454658 -2.166481 -6.879537 0.163983 4.754609 0.109184 -0.002672 78.999611 -22.274965 18.254923 52.316765 -0.725149 30.924700 1.153164 -0.853262 -0.367884 10.474895 4.355283 9.218405 -1.272260 -3.035233 20.916365 -10.203630 0.125111 -0.577165 -10.641060 -12.515256 -0.696802 14.838892 3.612225 0.454092 -6.907881 -0.484080 2.785888 
